{"title":"Original Sin 2001 1080p BluRay x264-THUGLiNE","uid":6499218,"size":8526844378,"categoryP":"video","categoryS":"hd___movies","magnet":"?xt=urn:btih:b3290dd02772a447d26f35e60dc95f8f647ed93e&amp;dn=Original+Sin+2001+1080p+BluRay+x264-THUGLiNE&amp;tr=udp%3A%2F%2Ftracker.openbittorrent.com%3A80&amp;tr=udp%3A%2F%2Fopen.demonii.com%3A1337&amp;tr=udp%3A%2F%2Ftracker.coppersurfer.tk%3A6969&amp;tr=udp%3A%2F%2Fexodus.desync.com%3A6969","seeders":0,"leechers":1,"uploader":"TPBAgri","files":-1,"time":1309186448,"description":"Genres:\tDrama , Mystery , Romance , Thriller \n\nActors:\tAntonio Banderas , Angelina Jolie , Thomas Jane , Jack Thompson , Gregory\n        Itzin , Allison Mackie , Joan Pringle , Cordelia Richards , James Haven , \n        Pedro ArmendÃƒÂ¡riz Jr. , Mario IvÃƒÂ¡n MartÃƒÂ­nez , Harry Porter , Fernando Torre \n        Laphame , Shaula Vega , Lisa Owen\n\nDirector:Michael Cristofer\n\nRuntime:116 min\n\nYear:\t2001\n\nPlot:\tWhen a man selects a mail order bride| he is surprised to see the beauty who appears before him. She alleges that she sent false photos to him to assure that he would love her for what she is and not for her beauty. However| what she is a con artist| prostitute| and actress| who teams with a fellow actor to steal money from men. What she does not expect is that she falls in love with her new husband and ultimately must decide between him and her sadistic former lover. Contains explicit sex including sadistic acts as Thomas Jane cuts Jolie's back with a knife as part of their lovemaking.\n\n\n\n\nRelease Group: thugline\nContainer: MKV\nResolution: 1080p\nSource Media: Blu Ray\nAudio Format: DTS\nAudio Channels: 6.1\nAudio Bitrate: 1510\n\nGeneral\nFormat : Matroska\nFile size : 7.94 GiB\nDuration : 1h 58mn\nOverall bit rate : 9 601 Kbps\n\nVideo\nID : 1\nFormat : AVC\nFormat/Info : Advanced Video Codec\nFormat profile : &lt;a class=&quot;__cf_email__&quot; href=&quot;/cdn-cgi/l/email-protection&quot; data-cfemail=&quot;d890b1bfb09894ecf6e9&quot;&gt;[email&amp;#160;protected]&lt;/a&gt;&lt;script cf-hash='f9e31' type=&quot;text/javascript&quot;&gt;\n/* &lt;![CDATA[ */!function(){try{var t=&quot;currentScript&quot;in document?document.currentScript:function(){for(var t=document.getElementsByTagName(&quot;script&quot;),e=t.length;e--;)if(t[e].getAttribute(&quot;cf-hash&quot;))return t[e]}();if(t&amp;&amp;t.previousSibling){var e,r,n,i,c=t.previousSibling,a=c.getAttribute(&quot;data-cfemail&quot;);if(a){for(e=&quot;&quot;,r=parseInt(a.substr(0,2),16),n=2;a.length-n;n+=2)i=parseInt(a.substr(n,2),16)^r,e+=String.fromCharCode(i);e=document.createTextNode(e),c.parentNode.replaceChild(e,c)}}}catch(u){}}();/* ]]&gt; */&lt;/script&gt;\nFormat settings, CABAC : Yes\nFormat settings, ReFrames : 5 frames\nCodec ID : V_MPEG4/ISO/AVC\nDuration : 1h 58mn\nBit rate : 8 096 Kbps\nWidth : 1 920 pixels\nHeight : 816 pixels\nDisplay aspect ratio : 2.35:1\nFrame rate : 23.976 fps\nColor space : YUV\nChroma subsampling : 4:2:0\nBit depth : 8 bits\nScan type : Progressive\nBits/(Pixel*Frame) : 0.216\nStream size : 6.53 GiB (82%)\nWriting library : x264 core 88 r1471 1144615\n\nAudio\nID : 2\nFormat : DTS\nFormat/Info : Digital Theater Systems\nCodec ID : A_DTS\nDuration : 1h 58mn\nBit rate mode : Constant\nBit rate : 1 510 Kbps\nChannel(s) : 6 channels\nChannel positions : Front: L C R, Side: L R, LFE\nSampling rate : 48.0 KHz\nBit depth : 16 bits\nCompression mode : Lossy\nStream size : 1.25 GiB (16%)\nLanguage : English\n","torrent":{"xt":"urn:btih:b3290dd02772a447d26f35e60dc95f8f647ed93e","amp;dn":"Original+Sin+2001+1080p+BluRay+x264-THUGLiNE","amp;tr":["udp%3A%2F%2Ftracker.openbittorrent.com%3A80","udp%3A%2F%2Fopen.demonii.com%3A1337","udp%3A%2F%2Ftracker.coppersurfer.tk%3A6969","udp%3A%2F%2Fexodus.desync.com%3A6969"],"infoHash":"b3290dd02772a447d26f35e60dc95f8f647ed93e","infoHashBuffer":{"type":"Buffer","data":[179,41,13,208,39,114,164,71,210,111,53,230,13,201,95,143,100,126,217,62]},"announce":[],"urlList":[]}}